<svg width="150" height="150" viewBox="0 0 150 150" fill="none" xmlns="http://www.w3.org/2000/svg">
<path d="M18.75 51.6469V51.5625C18.7499 43.2287 21.2181 35.0815 25.8431 28.1489C30.4682 21.2163 37.0429 15.8088 44.7379 12.6086C52.4328 9.40853 60.9031 8.55916 69.0802 10.1677C77.2574 11.7762 84.7749 15.7706 90.6844 21.6469C95.334 19.352 100.527 18.3871 105.691 18.8588C110.855 19.3306 115.787 21.2205 119.944 24.3199C124.101 27.4193 127.32 31.6075 129.246 36.4218C131.171 41.236 131.729 46.4889 130.856 51.6C132.139 51.7191 133.384 52.1013 134.512 52.7227C135.641 53.3442 136.629 54.1916 137.415 55.2121C138.202 56.2325 138.77 57.4041 139.083 58.6537C139.397 59.9033 139.449 61.2042 139.238 62.475C135 87.9656 124.519 104.1 107.812 110.888V117.188C107.812 120.917 106.331 124.494 103.694 127.131C101.056 129.768 97.4796 131.25 93.75 131.25H56.25C52.5204 131.25 48.9435 129.768 46.3063 127.131C43.6691 124.494 42.1875 120.917 42.1875 117.188V110.888C25.4813 104.1 15 87.9656 10.7625 62.475C10.558 61.2379 10.6037 59.9724 10.897 58.7533C11.1902 57.5342 11.7251 56.3863 12.4698 55.3776C13.2146 54.3688 14.1541 53.5197 15.2328 52.8805C16.3116 52.2414 17.5075 51.825 18.75 51.6563V51.6469ZM28.125 51.5625H37.5C37.5 45.3465 39.9693 39.3851 44.3647 34.9897C48.7601 30.5943 54.7215 28.125 60.9375 28.125C67.1535 28.125 73.1149 30.5943 77.5103 34.9897C81.9057 39.3851 84.375 45.3465 84.375 51.5625H93.75C93.75 42.8601 90.293 34.5141 84.1394 28.3606C77.9859 22.207 69.6399 18.75 60.9375 18.75C52.2351 18.75 43.8891 22.207 37.7356 28.3606C31.582 34.5141 28.125 42.8601 28.125 51.5625ZM46.875 51.5625H75C75 47.8329 73.5184 44.2561 70.8812 41.6188C68.244 38.9816 64.6671 37.5 60.9375 37.5C57.2079 37.5 53.631 38.9816 50.9938 41.6188C48.3566 44.2561 46.875 47.8329 46.875 51.5625ZM111.244 51.5625H121.284C121.992 48.7919 122.058 45.8964 121.477 43.0964C120.896 40.2965 119.684 37.6661 117.933 35.4056C116.181 33.1452 113.937 31.3143 111.371 30.0526C108.805 28.7909 105.985 28.1316 103.125 28.125C100.875 28.125 98.7375 28.5188 96.75 29.2406C98.4094 31.9031 99.7781 34.7719 100.828 37.7813C102.614 37.3384 104.49 37.4296 106.224 38.0435C107.959 38.6575 109.474 39.7671 110.584 41.2348C111.693 42.7025 112.347 44.4636 112.464 46.2996C112.581 48.1355 112.157 49.9655 111.244 51.5625ZM98.4375 112.5H51.5625V117.188C51.5625 118.431 52.0564 119.623 52.9354 120.502C53.8145 121.381 55.0068 121.875 56.25 121.875H93.75C94.9932 121.875 96.1855 121.381 97.0646 120.502C97.9436 119.623 98.4375 118.431 98.4375 117.188V112.5ZM48.2625 103.125H101.738C116.606 98.3438 126.019 84.825 129.994 60.9375H20.0063C23.9813 84.825 33.3937 98.3438 48.2625 103.125Z" fill="#006B53"/>
</svg>
